<svg xmlns="http://www.w3.org/2000/svg" viewBox="114.258 140.430 172.038 124.036">
    <!-- Top right diagonal line -->
    <path 
        d="M131.152 152.344 
           L 143.065 164.258 
           181.201 164.258 
           L 219.336 164.258 
           219.336 214.355 
           L 219.336 264.453 
           232.422 264.453 
           L 245.508 264.453 
           245.508 214.355 
           L 245.508 164.258 
           254.022 164.258 
           L 262.537 164.258 
           274.384 152.524 
           C 280.899 146.070,
              286.260 140.709,
              286.296 140.610 
           C 286.335 140.500,
              253.664 140.430,
              202.800 140.430 
           L 119.239 140.430 
           131.152 152.344"
        fill="white" 
        stroke="none"/>

    <!-- Main body and curves -->
    <path 
        d="M114.258 204.939 
           L 114.258 264.466 
           142.334 264.395 
           C 167.947 264.331,
              170.547 264.295,
              171.973 264.000
           C 172.832 263.805,
              174.063 263.565,
              174.707 263.456 
           C 181.677 261.719,
              187.281 258.962,
              189.548 257.322 
           C 204.689 246.370,
              209.788 228.218,
              202.126 212.552 
           C 200.310 208.841,
              198.531 206.465,
              194.882 202.881 
           L 191.949 200.000 
           194.882 197.119 
           C 201.908 190.217,
              205.195 183.077,
              205.589 173.860 
           L 205.724 170.703 
           193.705 170.703 
           L 181.686 170.703 
           181.712 173.193 
           C 181.798 181.390,
              177.291 186.367,
              168.491 187.794 
           C 167.128 188.015,
              164.899 188.085,
              159.174 188.085 
           C 152.681 188.086,
              151.590 188.128,
              151.215 188.390 
           L 150.781 188.694 
           150.781 200.000 
           L 150.781 211.306 
           151.215 211.610 
           C 151.590 211.872,
              152.681 211.914,
              159.174 211.915 
           C 168.716 211.916,
              171.157 212.275,
              174.896 214.227 
           C 180.761 217.288,
              183.397 224.858,
              180.717 230.946 
           C 178.631 235.685,
              174.701 238.360,
              168.457 239.289 
           C 166.715 239.548,
              139.837 239.592,
              139.423 239.337 
           C 139.332 239.281,
              139.258 223.749,
              139.258 204.822 
           L 139.258 170.409 
           126.758 157.910 
           L 114.258 145.411 
           114.258 204.939"
        fill="white" 
        stroke="none"/>
</svg>